<svg width="17" height="18" viewBox="0 0 17 18" fill="none" xmlns="http://www.w3.org/2000/svg">
<path d="M9.23 9.46H15.964L14.456 17H11.388L10.894 15.336H10.79C10.3393 15.856 9.802 16.298 9.178 16.662C8.57133 17.026 7.774 17.208 6.786 17.208C6.02333 17.208 5.28667 17.0867 4.576 16.844C3.88267 16.584 3.25867 16.1853 2.704 15.648C2.16667 15.0933 1.73333 14.374 1.404 13.49C1.07467 12.606 0.91 11.54 0.91 10.292C0.91 8.94 1.118 7.65733 1.534 6.444C1.95 5.23067 2.574 4.16467 3.406 3.246C4.238 2.31 5.278 1.57333 6.526 1.036C7.774 0.498666 9.23 0.229999 10.894 0.229999C12.1767 0.229999 13.2947 0.377332 14.248 0.671999C15.2013 0.966666 16.1027 1.296 16.952 1.66L15.964 6.704H11.57C11.5873 6.51333 11.6133 6.288 11.648 6.028C11.6827 5.768 11.7087 5.49933 11.726 5.222C11.7433 4.92733 11.7607 4.64133 11.778 4.364C11.7953 4.08667 11.804 3.844 11.804 3.636C11.804 3.49733 11.7953 3.34133 11.778 3.168C11.7607 2.97733 11.7173 2.79533 11.648 2.622C11.5787 2.44867 11.4747 2.31 11.336 2.206C11.1973 2.08467 10.998 2.024 10.738 2.024C10.2873 2.024 9.87133 2.21467 9.49 2.596C9.126 2.96 8.79667 3.454 8.502 4.078C8.20733 4.68467 7.94733 5.378 7.722 6.158C7.514 6.938 7.332 7.73533 7.176 8.55C7.03733 9.34733 6.92467 10.136 6.838 10.916C6.76867 11.6787 6.734 12.346 6.734 12.918C6.734 13.0913 6.74267 13.308 6.76 13.568C6.77733 13.828 6.82933 14.088 6.916 14.348C7.02 14.5907 7.15867 14.8073 7.332 14.998C7.52267 15.1713 7.79133 15.258 8.138 15.258C8.71 15.258 9.26467 14.946 9.802 14.322C10.3393 13.698 10.7467 12.658 11.024 11.202H8.84L9.23 9.46Z" fill="#1976D2"/>
</svg>
