<svg width="110" height="18" viewBox="0 0 110 18" fill="none" xmlns="http://www.w3.org/2000/svg">
<path d="M9.23 9.46H15.964L14.456 17H11.388L10.894 15.336H10.79C10.3393 15.856 9.802 16.298 9.178 16.662C8.57133 17.026 7.774 17.208 6.786 17.208C6.02333 17.208 5.28667 17.0867 4.576 16.844C3.88267 16.584 3.25867 16.1853 2.704 15.648C2.16667 15.0933 1.73333 14.374 1.404 13.49C1.07467 12.606 0.91 11.54 0.91 10.292C0.91 8.94 1.118 7.65733 1.534 6.444C1.95 5.23067 2.574 4.16467 3.406 3.246C4.238 2.31 5.278 1.57333 6.526 1.036C7.774 0.498666 9.23 0.229999 10.894 0.229999C12.1767 0.229999 13.2947 0.377332 14.248 0.671999C15.2013 0.966666 16.1027 1.296 16.952 1.66L15.964 6.704H11.57C11.5873 6.51333 11.6133 6.288 11.648 6.028C11.6827 5.768 11.7087 5.49933 11.726 5.222C11.7433 4.92733 11.7607 4.64133 11.778 4.364C11.7953 4.08667 11.804 3.844 11.804 3.636C11.804 3.49733 11.7953 3.34133 11.778 3.168C11.7607 2.97733 11.7173 2.79533 11.648 2.622C11.5787 2.44867 11.4747 2.31 11.336 2.206C11.1973 2.08467 10.998 2.024 10.738 2.024C10.2873 2.024 9.87133 2.21467 9.49 2.596C9.126 2.96 8.79667 3.454 8.502 4.078C8.20733 4.68467 7.94733 5.378 7.722 6.158C7.514 6.938 7.332 7.73533 7.176 8.55C7.03733 9.34733 6.92467 10.136 6.838 10.916C6.76867 11.6787 6.734 12.346 6.734 12.918C6.734 13.0913 6.74267 13.308 6.76 13.568C6.77733 13.828 6.82933 14.088 6.916 14.348C7.02 14.5907 7.15867 14.8073 7.332 14.998C7.52267 15.1713 7.79133 15.258 8.138 15.258C8.71 15.258 9.26467 14.946 9.802 14.322C10.3393 13.698 10.7467 12.658 11.024 11.202H8.84L9.23 9.46ZM27.3676 0.229999C28.8583 0.229999 30.063 0.420666 30.9816 0.801999C31.9176 1.18333 32.6543 1.77267 33.1916 2.57C33.5383 3.10733 33.807 3.714 33.9976 4.39C34.1883 5.066 34.2836 5.846 34.2836 6.73C34.2836 7.49267 34.2143 8.25533 34.0756 9.018C33.937 9.78067 33.7376 10.5173 33.4776 11.228C33.235 11.9213 32.9316 12.58 32.5676 13.204C32.221 13.8107 31.831 14.348 31.3976 14.816C30.583 15.7 29.6383 16.324 28.5636 16.688C27.5063 17.0347 26.1976 17.208 24.6376 17.208C23.1296 17.208 21.9163 17.052 20.9976 16.74C20.079 16.428 19.351 15.9253 18.8136 15.232C18.4323 14.7467 18.129 14.1313 17.9036 13.386C17.6956 12.6407 17.5916 11.7047 17.5916 10.578C17.5916 8.654 17.9296 6.938 18.6056 5.43C19.299 3.90467 20.2783 2.7 21.5436 1.816C22.3063 1.27867 23.1556 0.879999 24.0916 0.619999C25.0276 0.359999 26.1196 0.229999 27.3676 0.229999ZM24.4296 15.388C24.8283 15.388 25.201 15.2147 25.5476 14.868C25.9116 14.504 26.241 14.0273 26.5356 13.438C26.8476 12.8313 27.125 12.1467 27.3676 11.384C27.6276 10.6213 27.8443 9.83267 28.0176 9.018C28.191 8.20333 28.321 7.39733 28.4076 6.6C28.5116 5.78533 28.5636 5.04867 28.5636 4.39C28.5636 3.48867 28.4683 2.87333 28.2776 2.544C28.1043 2.19733 27.8443 2.024 27.4976 2.024C27.099 2.024 26.7176 2.19733 26.3536 2.544C25.9896 2.89067 25.643 3.35867 25.3136 3.948C25.0016 4.52 24.7156 5.18733 24.4556 5.95C24.213 6.69533 23.9963 7.46667 23.8056 8.264C23.6323 9.06133 23.4936 9.85 23.3896 10.63C23.303 11.41 23.2596 12.1293 23.2596 12.788C23.2596 13.776 23.3636 14.4607 23.5716 14.842C23.797 15.206 24.083 15.388 24.4296 15.388ZM37.9905 0.489999H48.9365L48.5205 2.466H43.2165L42.1245 7.484H46.5705L46.1545 9.434H41.7085L40.5125 14.998H45.8165L45.4265 17H34.4805L37.9905 0.489999ZM66.6406 17H60.8686L63.2606 5.768L57.0986 17H53.5626L52.3926 5.378L49.8966 17H47.5566L51.0666 0.489999H57.6966L58.5026 9.798L63.4946 0.489999H70.1766L66.6406 17ZM83.8981 17H77.8141L77.4501 12.866H72.6401L70.7941 17H68.2721L75.9421 0.489999H82.1041L83.8981 17ZM73.4981 10.968H77.2681L76.6701 3.896L73.4981 10.968ZM88.6448 0.489999H94.2868L91.2188 14.816H96.4968L96.0548 17H85.1348L88.6448 0.489999ZM101.188 0.489999H106.83L103.762 14.816H109.04L108.598 17H97.6777L101.188 0.489999Z" fill="white"/>
</svg>
